<svg width="45" height="45" viewBox="0 0 45 45" fill="none" xmlns="http://www.w3.org/2000/svg">
<rect width="44.3229" height="44.3229" fill="#A14962"/>
<path d="M31.8387 27.4799C31.2071 26.9502 27.5028 24.6044 26.8871 24.7121C26.598 24.7634 26.3769 25.0098 25.785 25.7159C25.5113 26.0634 25.2107 26.3889 24.886 26.6893C24.2911 26.5456 23.7153 26.3321 23.1704 26.0534C21.0337 25.0131 19.3076 23.2864 18.2679 21.1494C17.9892 20.6046 17.7757 20.0287 17.632 19.4338C17.9324 19.1091 18.2579 18.8086 18.6054 18.5348C19.3107 17.943 19.5579 17.7233 19.6092 17.4328C19.7169 16.8156 17.3689 13.1128 16.8414 12.4812C16.6203 12.2196 16.4194 12.0439 16.1621 12.0439C15.4163 12.0439 12.043 16.2151 12.043 16.7557C12.043 16.7997 12.1152 21.1422 17.5995 26.7218C23.1791 32.2061 27.5215 32.2783 27.5656 32.2783C28.1062 32.2783 32.2773 28.905 32.2773 28.1592C32.2773 27.9019 32.1017 27.701 31.8387 27.4799Z" fill="white"/>
<path d="M27.2188 21.4385H28.6641C28.6623 19.9057 28.0527 18.4362 26.9689 17.3524C25.8851 16.2686 24.4156 15.6589 22.8828 15.6572V17.1025C24.0324 17.1037 25.1346 17.5609 25.9475 18.3738C26.7604 19.1867 27.2176 20.2889 27.2188 21.4385Z" fill="white"/>
<path d="M30.832 21.4385H32.2773C32.2745 18.9478 31.2838 16.5599 29.5226 14.7987C27.7614 13.0375 25.3735 12.0468 22.8828 12.0439V13.4893C24.9903 13.4917 27.0108 14.33 28.501 15.8203C29.9912 17.3105 30.8295 19.331 30.832 21.4385Z" fill="white"/>
</svg>
