<svg width="75" height="45" viewBox="0 0 75 45" fill="none" xmlns="http://www.w3.org/2000/svg">
<path d="M4.80933 5.75221C8.04758 1.98897 12.6904 0 18.2356 0C28.29 0 36.47 8.17991 36.47 18.2343C36.47 28.0126 28.7334 36.0178 19.0598 36.4502C19.3313 39.8776 21.273 43.1611 21.2941 43.1964C21.4408 43.4412 21.4446 43.7462 21.3039 43.9945C21.1633 44.2429 20.8998 44.3966 20.614 44.3966C16.8443 44.3966 11.6786 41.5278 7.4541 37.0881C2.71777 32.1108 0.00134277 26.1057 0.00134277 20.6127C0.00134277 14.5461 1.66383 9.40747 4.80933 5.75221ZM8.60271 35.9953C11.97 39.534 16.0518 42.0648 19.232 42.6713C18.4944 41.1166 17.4429 38.4197 17.4429 35.6758C17.4429 35.2379 17.7977 34.883 18.2356 34.883C27.4157 34.883 34.8844 27.4144 34.8844 18.2343C34.8844 9.0542 27.4157 1.58559 18.2356 1.58559C7.96625 1.58559 1.58694 8.8763 1.58694 20.6127C1.58694 25.7029 4.14418 31.3096 8.60271 35.9953ZM55.9727 0C66.0271 0 74.207 8.17991 74.207 18.2343C74.207 28.0126 66.4705 36.0178 56.7969 36.4502C57.0685 39.8776 59.0101 43.1611 59.0312 43.1964C59.1778 43.4412 59.1816 43.7462 59.041 43.9945C58.9002 44.2429 58.6367 44.3966 58.3511 44.3966C54.5814 44.3966 49.4157 41.5278 45.1912 37.0881C40.4549 32.1108 37.7384 26.1057 37.7384 20.6127C37.7384 14.5461 39.4011 9.40747 42.5464 5.75221C45.7847 1.98897 50.4274 0 55.9727 0ZM46.3398 35.9953C49.7071 39.534 53.7889 42.0648 56.9693 42.6713C56.2315 41.1166 55.1799 38.4197 55.1799 35.6758C55.1799 35.2379 55.5349 34.883 55.9727 34.883C65.1528 34.883 72.6214 27.4144 72.6214 18.2343C72.6214 9.0542 65.1528 1.58559 55.9727 1.58559C45.7035 1.58559 39.324 8.8763 39.324 20.6127C39.324 25.7029 41.8811 31.3096 46.3398 35.9953Z" fill="white"/>
</svg>
