<svg width="30" height="18" viewBox="0 0 30 18" fill="none" xmlns="http://www.w3.org/2000/svg">
<path d="M27.1812 2.32125C25.9128 0.80263 24.0944 0 21.9225 0C17.9844 0 14.7806 3.30093 14.7806 7.3583C14.7806 11.3043 17.8108 14.5347 21.5996 14.7092C21.4933 16.0923 20.7328 17.4173 20.7245 17.4315C20.6671 17.5303 20.6656 17.6534 20.7207 17.7536C20.7758 17.8539 20.879 17.9159 20.9909 17.9159C22.4674 17.9159 24.4907 16.7582 26.1453 14.9666C28.0004 12.958 29.0643 10.5347 29.0643 8.31808C29.0643 5.86994 28.4132 3.79631 27.1812 2.32125ZM25.6954 14.5256C24.3765 15.9536 22.7778 16.9749 21.5322 17.2196C21.8211 16.5923 22.233 15.5039 22.233 14.3967C22.233 14.2199 22.094 14.0767 21.9225 14.0767C18.3269 14.0767 15.4016 11.0628 15.4016 7.3583C15.4016 3.65375 18.3269 0.639852 21.9225 0.639852C25.9447 0.639852 28.4433 3.58196 28.4433 8.31808C28.4433 10.3722 27.4417 12.6347 25.6954 14.5256ZM7.14188 0C3.20385 0 0 3.30093 0 7.3583C0 11.3043 3.03021 14.5347 6.81906 14.7092C6.71268 16.0923 5.95223 17.4173 5.94397 17.4315C5.88652 17.5303 5.88503 17.6534 5.94012 17.7536C5.99526 17.8539 6.09848 17.9159 6.21033 17.9159C7.68683 17.9159 9.71009 16.7582 11.3647 14.9666C13.2198 12.958 14.2838 10.5347 14.2838 8.31808C14.2838 5.86994 13.6325 3.79631 12.4006 2.32125C11.1323 0.80263 9.31381 0 7.14188 0ZM10.9148 14.5256C9.59595 15.9536 7.99722 16.9749 6.75156 17.2196C7.04052 16.5923 7.45239 15.5039 7.45239 14.3967C7.45239 14.2199 7.31334 14.0767 7.14188 14.0767C3.54628 14.0767 0.621033 11.0628 0.621033 7.3583C0.621033 3.65375 3.54628 0.639852 7.14188 0.639852C11.1641 0.639852 13.6627 3.58196 13.6627 8.31808C13.6627 10.3722 12.6612 12.6347 10.9148 14.5256Z" fill="white"/>
</svg>
